# xmcd
#
# Track frame offsets:
#	150
#	21376
#	37967
#	50097
#	64946
#	78145
#	91717
#	108283
#	120978
#	136526
#	148804
#	164768
#
# Disc length: 2378 seconds
#
# Revision: 0
# Processed by: cddbd v1.5.2PL0 Copyright (c) Steve Scherf et al.
# Submitted via: EasyCDDAExtractor 10.2.0.1
#
DISCID=9909480c
DTITLE=Various Artist - HMG Nashville Christmas
DYEAR=2005
DGENRE=Gospel
TTITLE0=Threefold - Drummer Boy
TTITLE1=Malcolm Slater - Grandma's Christmas Book
TTITLE2=The Alabama Crossmen - Baby Of Bethlehem
TTITLE3=Revelation - The Greatest Concert
TTITLE4=Brenda Geneau - Joy To The World
TTITLE5=Crystal Lynn - There Is A Child
TTITLE6=Gary Meggs - Happy Birthday Jesus
TTITLE7=Blanche Tate - Merry Chritmas My Friend
TTITLE8=Amber Morgan - Christmas In America
TTITLE9=The Smyma Band - The Gift
TTITLE10=Tara Alyse - Santa's Cause
TTITLE11=Gene Higgins - From The Cradle To The Grave
EXTD=
EXTT0=
EXTT1=
EXTT2=
EXTT3=
EXTT4=
EXTT5=
EXTT6=
EXTT7=
EXTT8=
EXTT9=
EXTT10=
EXTT11=
PLAYORDER=
